<svg xmlns="http://www.w3.org/2000/svg" viewBox="0 0 24 24" fill="#fff"><path d="M.632.55v22.9H2.28V24H0V0h2.28v.55zm7.043 7.26v1.157h.033c.309-.443.683-.784 1.117-1.024.433-.245.936-.365 1.5-.365.54 0 1.033.107 1.488.323.45.214.773.553.96 1.016.293-.46.662-.816 1.12-1.065a3.14 3.14 0 0 1 1.553-.39c.468 0 .9.067 1.296.195.396.13.72.34.97.627.254.29.443.644.567 1.065.126.42.188.927.188 1.52v5.63H16.18V11.2c0-.32-.018-.628-.06-.924a1.88 1.88 0 0 0-.218-.737 1.236 1.236 0 0 0-.465-.49c-.202-.122-.468-.184-.797-.184-.33 0-.6.066-.81.195a1.427 1.427 0 0 0-.496.498 2.1 2.1 0 0 0-.252.715 4.17 4.17 0 0 0-.07.81v5.466H10.72v-5.48c0-.275-.014-.553-.038-.83a2.2 2.2 0 0 0-.178-.737 1.19 1.19 0 0 0-.42-.528c-.18-.138-.44-.207-.78-.207-.108 0-.24.018-.398.06a1.38 1.38 0 0 0-.448.202 1.36 1.36 0 0 0-.39.435c-.108.185-.162.44-.162.762v6.32H5.61V7.81zm15.693 15.64V.55H21.72V0H24v24h-2.28v-.55z"/></svg>
